<svg xmlns="http://www.w3.org/2000/svg" width="24" height="24.55"><path data-name="Caminho 170" d="M20.364 21.579a12.86 12.86 0 0 0 3.415-11.536H12.243v4.769h6.574a5.428 5.428 0 0 1-2.449 3.674Z" fill="#4285f4"/><path data-name="Caminho 171" d="M1.287 17.777a12.374 12.374 0 0 0 19.077 3.8l-4-3.094a7.386 7.386 0 0 1-11.017-3.864Z" fill="#34a853"/><path data-name="Caminho 172" d="M5.347 14.619a7.349 7.349 0 0 1 0-4.7l-4.06-3.163a12.453 12.453 0 0 0 0 11.021Z" fill="#fbbc02"/><path data-name="Caminho 173" d="M5.347 9.915c1.418-4.447 7.476-7.025 11.536-3.222l3.545-3.48A12.169 12.169 0 0 0 1.287 6.756Z" fill="#ea4335"/></svg>