<svg data-name="Camada 1" xmlns="http://www.w3.org/2000/svg" viewBox="0 0 421.25 421.25"><circle cx="210.62" cy="210.63" r="210.62" fill="#f0f7ff"/><g fill="#d8e1f0"><path d="M112.01 68.39c3-.38 6.94-.41 7.66-3.3.48-1.94-1.22-3.88-3.16-4.41s-4 0-5.91.47c-2.25-3 2.17-6.48 5.74-7.64l15.91-5.19c3.21-1 8.41-.58 7.93 2.76 6.86-5.43 14.18-11.07 22.87-12.17 6.5-.82 13 1 19.31 2.86l18.53 5.39c2.34.68 4.77 1.41 6.58 3.05 2.26 2 3.31 5.34 5.92 6.91s5.85 1 8.39 2.51a10 10 0 0 1 3.72 4.62c5.07 10.56 2.52 23.53-3.71 33.45s-15.65 17.36-25.07 24.32c-7.44 5.51-15.19 10.94-24.08 13.49a45.11 45.11 0 0 1 11 1.32 7.07 7.07 0 0 1 4-3.17l2.48 8.24c5.78.28 9.28 8.46 5.49 12.83-1.87 2.17-4.85 3.2-6.56 5.5-2.71 3.64-1.05 9.16 2.37 12.15s8 4.09 12.47 5.08l2.83-2.51c1.39 3 5.48 3.36 8.81 3.56s7.52 1.62 7.63 5a6.06 6.06 0 0 1-.73 2.77c-3.87 8.13-14.64 12.16-22.9 8.57-4.76-2.06-10.24-6.19-14.35-3a6.78 6.78 0 0 1-8.91 9.95 23.07 23.07 0 0 0 1.47 23.48c1-3.63 7-3 8.85.31s.78 7.39-.29 11a4.28 4.28 0 0 0 6.44-2.78c4.84.26 8.19 5.65 7.7 10.47s-3.82 8.9-7.56 12c-2.77 2.28-6.2 5-5.67 8.52.25 1.67 1.37 3.06 2.37 4.42a41 41 0 0 1 7.84 22.03c-3.88-2.14-8.61-.32-12.87.9s-9.89 1.24-11.9-2.7a16.08 16.08 0 0 1-13.24 5.45c2.63 5.79-4.33 13.15-10.26 10.85a8 8 0 0 0-7.6-8.85c-3.8 0-9 2.07-10.39-1.48l5.87 6.53a6.64 6.64 0 0 0-4.74 6.47 5.2 5.2 0 0 1 3.59 5.36c-1.79-1.64-3.06 2.26-3.93 4.52-1.62 4.18-8.4 3.56-11-.11s-2.18-8.58-1.69-13c.29-2.57.64-5.3 2.31-7.28s5.16-2.6 6.74-.56c-5.66-5.89-3.82-15.43-1.59-23.29l8.52-30.17a25.53 25.53 0 0 1-8.68 3.27c-2.57 3.68-1.28 9.27-4.3 12.59-1.81 2-4.65 2.55-7.24 3.3-3.6 1-7.19 2.72-9.48 5.68s-2.92 7.45-.67 10.45 6.51 3.62 10 5.06 7 5.41 5 8.69a13.4 13.4 0 0 1-7.88.19c1.15 2.77 2 6 .73 8.71s-5.51 4-7.3 1.58c2.53 2-.83 6-4 6.11s-6.54-1.48-9.48-.2c-2.41 1.05-3.82 3.78-6.3 4.69-4.71 1.73-8.82-4.4-8.47-9.41s3-9.79 2.49-14.79c-.4-4.24-3-8-3.84-12.13s1.27-9.68 5.53-9.66c1.75 0 3.37 1 5.11 1.18 3.88.42 7.21-3.34 7.75-7.2s-.92-7.7-2.41-11.31a20.4 20.4 0 0 1-11.05-14.65c-1.8 5-3.94 10.45-8.58 13.08a13.2 13.2 0 0 0-11.63-7.25 77.78 77.78 0 0 1-3.04 24.38c-4.32.24-7.68-4.29-7.83-8.61s2-8.36 4-12.16a16.4 16.4 0 0 0-8.63.9c2.6 2.59 4.94 7.53 1.69 9.22a4.67 4.67 0 0 1-3.88-.15c-4.57-1.9-7.27-6.87-7.85-11.79s.57-9.86 1.73-14.68c-2.68 1.53-5.77-1.43-6.88-4.31s-1.83-6.39-4.62-7.71c-4.4-2.08-8.82 3.82-8.27 8.66s3.66 9.05 4.46 13.85c-4.42.58-8.22-3.85-8.67-8.29s1.49-8.73 3.39-12.77 3.88-8.3 3.52-12.75c-.28-3.53-.69-8.88 2.86-8.86l-8.39-10.46-5.37 2.91a93.88 93.88 0 0 1 4.37-46.22 25.27 25.27 0 0 1 3.68-7.29c1.94-2.46 4.63-4.26 6.48-6.8 5.65-7.75 1.82-19.75 7.74-27.3 3.46-4.41 9.3-6 14-9 8.5-5.38 13.13-15 18.2-23.66s11.94-17.57 21.83-19.45c2.88-.55 5.88-.45 8.72-1.24 3.08-.85 5.77-2.7 8.49-4.38a100.47 100.47 0 0 1 22.52-10.34c3-1 6.72-1.63 9 .55 3.85 3.65-.77 10.08-5.72 12-6.63 2.55-14 2.21-21 3.5s-14.42 5.11-16.25 12c-.56 2.1-.55 4.35-1.44 6.32-1.43 3.15-4.79 4.9-6.93 7.61s-2.09 7.86 1.3 8.5c1.45.27 2.88-.46 4.18-1.17 4.18-2.27 8.79-4.26 12.65-7.07s6.36-6.85 11.43-7.42Z"/><path d="M238.5 156.71c-2.31 1.57-5.33 1.47-8.12 1.31a5.56 5.56 0 0 1-3-.77c-2.8-2.08-.21-7.71-3.21-9.51-2.2-1.31-4.72 1-7.19 1.64-3.59 1-7.37-1.94-8.44-5.5s0-7.42 1.55-10.77c1.74-3.65 4.83-7.35 8.87-7.25 2.81.06 5.2 2 7.8 3s6.33.88 7.36-1.74c-1.06 2.7 9.09 12.07 9.57 15.82.41 3.5-2.31 11.81-5.19 13.77ZM239.59 108.44c-.28 3.67-1.25 8 1.42 10.54 2.32 2.2 6 1.64 9.1 2.55s5.24 3.11 7.86 4.7c8.5 5.15 19.33 3.08 29 .85 0 8.76-8.74 16.48-17.43 15.39l-1.33-4.8-1.18 7.27a31.81 31.81 0 0 1 6.79 19.66c0 2.9-.42 5.84.21 8.67s2.63 5.63 5.5 6a6.11 6.11 0 0 1-1.46-6 20.34 20.34 0 0 1 11.8 7.63c-4.08.65-9.25 2.48-9.18 6.61.07 4.54 6.32 5.9 10.76 5s9.82-2.35 12.93.95l.05 7.34a4 4 0 0 1-4.84-1.56c-1.38-.26-2.44 1.34-2.52 2.75s.37 2.85 0 4.22c-.77 2.91-4.45 3.7-6.82 5.55-4.94 3.86-2.71 12.94 3.16 15.15s12.83-1.73 15.29-7.49a18.27 18.27 0 0 1 5.12 7.76l11.95-.69a6.77 6.77 0 0 1 3.26.35c2.66 1.26 2.36 5.51.13 7.43s-5.39 2.17-8.33 2.32c.21 2.51-1.71 4.61-3 6.78a14.7 14.7 0 0 0 13.7 22.19c-1.63-2.72-1.94-7.81 1.22-7.52.91.08 1.69.73 2.59.82a4 4 0 0 0 2.85-1.27c5-4.34 7.64-11.62 5.45-17.85l6.13.09a25.83 25.83 0 0 0-11.62-15.14c-7.21-4.26-17.22-5.69-20.58-13.37-4.88-11.14 9.47-22.75 7.36-34.73a49.51 49.51 0 0 1 15.33 7.25c1.25-2 3.27 1.55 4.93 3.17s4.15 1.14 5.82-.16 2.6-3.31 3.48-5.24a13.9 13.9 0 0 1 2.23 9.77c-.38 2.5-1.44 4.89-1.56 7.41s1.13 5.44 3.6 6l-7.64 2.33 4.68 6.89-7.3 1.59c-1.09 2.62 3.23 5.25 5.06 3.09 2.72-.16 4.65 2.71 5.25 5.37s.52 5.59 2 7.9 5.42 3.25 6.72.85a19.67 19.67 0 0 0 13.75 7c2 1.95.16 5.69-2.52 6.46s-5.52-.39-8.07-1.52l-1.76 11.5c-2.49 1.91-6.34.65-8.28-1.82s-2.46-5.72-2.92-8.83c-2 4.75-2.71 10.27-.85 15.08s6.63 8.65 11.79 8.46c10.19-.37 15.71-14.52 25.9-14.9a38.91 38.91 0 0 1-3.65 29.41 21.25 21.25 0 0 0-2.78 5.83 16.62 16.62 0 0 0 .22 6.16l3.07 19.15q4.85-11.75 9.56-23.54c2.73-6.81 5.46-13.73 6.3-21 .62-5.38.2-10.87 1.07-16.22.81-5 2.71-9.66 4.12-14.49 5.21-17.89 3.56-37 1.86-55.52-.67-7.37-2.47-16.26-9.47-18.66-2.23.5-3.35 3.16-3.07 5.43s1.54 4.27 2.53 6.32a28.26 28.26 0 0 1 2.48 16.4c-.43 2.89-2.65 6.45-5.38 5.38a52.3 52.3 0 0 1-3.93-18.35c-3.32 3.44-9.43 1.44-12.54-2.2s-4.6-8.43-7.65-12.11c-4.34-5.23-11.72-8.11-14-14.51-1.13-3.17-.76-6.66-1.37-10a17.42 17.42 0 0 0-10.4-12.78c-2.16-.88-4.52-1.33-6.47-2.59-3.45-2.24-5-6.61-8.39-8.95-3.82-2.65-9.32-2-13 .87s-5.68 7.45-6.27 12.06a32.26 32.26 0 0 1-11-8.56 10.79 10.79 0 0 1-2.08-3.49c-.61-2-.22-4.11 0-6.18 1-8.76-1-17.57-3-26.17-6.16-2.68-13.3-6.68-13.83-13.47-.2-2.33.45-4.74-.19-7-1.38-4.77-7.65-6.36-10-10.73-3.61-6.73 3.69-16.29-1.16-22.19-4.56 2.33-9.22 4.82-12.44 8.8s-4.65 9.87-2.07 14.3c3.42 5.86 12.86 8.19 12.86 15-2.88 2.27-7.14.7-10.14-1.39s-6.07-4.79-9.73-4.62c-4.82.21-8.69 5.4-13.45 4.63-1.54-.25-3.14-1.11-4.55-.47-2.34 1.08-1.42 4.51-1.56 7.08a7.07 7.07 0 0 1-7.67 6.38c-1-.14 6.51 9.53 7.29 10.58a23 23 0 0 1 4.9 15.61Z"/><path d="M361.5 115.53c-.55.37-1.16.82-1.25 1.48a2.21 2.21 0 0 0 .47 1.44c2.55 3.79 7.75 5.24 10 9.21 1.86 3.26 1.24 7.3.56 11a13 13 0 0 1-6.84-7 35.14 35.14 0 0 0 8.53 11.77c2.63 2.37 5.7 4.45 7.29 7.61a12.34 12.34 0 0 0 1.44 2.65c1.57 1.81 4.35 1.76 6.74 1.56 1.47-.13 3.1-.33 4.05-1.45a5.57 5.57 0 0 0 1-2.7l2-10.2 4.75 2.56-5.44-17.06a52 52 0 0 0-3.2-8.32c-2.56-4.91-6.61-8.85-10.59-12.69a17.43 17.43 0 0 0 6.6 13.18 15.63 15.63 0 0 1-12.21-9.49 4.17 4.17 0 0 0-.95-1.66c-1.58-1.38-11.22 6.95-12.95 8.11Z"/></g><g fill="#a8b7ce"><circle cx="80.78" cy="240.48" r="9.35"/><circle cx="201.28" cy="179.35" r="19.75"/><circle cx="211.73" cy="320.81" r="25.98"/><circle cx="108.13" cy="110.78" r="18.71"/><circle cx="210.02" cy="103.46" r="19.75"/><circle cx="149.01" cy="198.96" r="12.47"/><circle cx="152.95" cy="248.78" r="16.63"/></g></svg>